<?xml version="1.0" encoding="UTF-8"?>
<svg width="1730.9" height="2260.7" version="1.1" xmlns="http://www.w3.org/2000/svg" xmlns:cc="http://creativecommons.org/ns#" xmlns:dc="http://purl.org/dc/elements/1.1/" xmlns:rdf="http://www.w3.org/1999/02/22-rdf-syntax-ns#">
  <metadata>
    <rdf:RDF>
      <cc:Work rdf:about="">
        <dc:format>image/svg+xml</dc:format>
        <dc:type rdf:resource="http://purl.org/dc/dcmitype/StillImage"/>
        <dc:title/>
      </cc:Work>
    </rdf:RDF>
  </metadata>
  <g transform="matrix(16.32 0 0 16.32 -2244.4 -234.81)">
    <g transform="matrix(1.5814 0 0 1.5814 111.48 4.5737)" fill="" style="fill:#b3cccc" feature="symbol" name="symbol" rel="mainfill">
      <path d="m49.335 41.072 5.809 6.906c-0.093 0.778 0.116 1.589 0.66 2.236 1.043 1.24 2.893 1.4 4.133 0.357s1.4-2.893 0.357-4.133c-0.544-0.646-1.307-0.992-2.089-1.033l-5.829-6.93 8.905-3.157c0.695 0.36 1.528 0.448 2.324 0.166 1.527-0.541 2.326-2.218 1.785-3.745s-2.218-2.326-3.745-1.785c-0.796 0.282-1.387 0.876-1.701 1.593l-9.215 3.267-0.875-8.89c0.516-0.589 0.802-1.376 0.72-2.216-0.159-1.612-1.594-2.791-3.206-2.632s-2.791 1.594-2.632 3.206c0.083 0.841 0.517 1.557 1.138 2.034l0.875 8.89-9.676-1.408c-0.447-0.643-1.143-1.11-1.979-1.231-1.603-0.233-3.092 0.877-3.325 2.48s0.877 3.092 2.48 3.325c0.836 0.122 1.636-0.128 2.248-0.616l9.35 1.361-4.366 7.934c-0.759 0.193-1.44 0.681-1.848 1.421-0.781 1.419-0.264 3.203 1.155 3.984s3.203 0.264 3.984-1.155c0.407-0.74 0.454-1.576 0.212-2.321z"/>
      <path d="m83.069 75.334-2.752-9.673c-0.298-1.044-1.376-1.665-2.427-1.388l-21.745 5.654 0.448-4.035c1.719 0.483 3.528 0.66 5.337 0.484 7.995-0.787 13.86-7.932 13.073-15.927-0.233-2.379-1.022-4.604-2.31-6.556 4.97-2.775 8.002-8.343 7.43-14.159-0.737-7.494-6.965-13.146-14.486-13.146-0.479 0-0.964 0.024-1.442 0.071-0.948 0.093-1.881 0.279-2.789 0.556-1.726-6.204-7.365-10.622-14.015-10.622-0.479 0-0.964 0.024-1.443 0.071-7.144 0.703-12.587 6.483-13.108 13.361-0.943-0.094-1.898-0.096-2.84-2e-3 -7.996 0.787-13.861 7.932-13.074 15.928 0.571 5.816 4.631 10.686 10.047 12.44-0.882 2.165-1.222 4.501-0.988 6.88 0.737 7.494 6.965 13.146 14.486 13.146 0.479 0 0.964-0.024 1.442-0.071 1.569-0.154 3.064-0.564 4.457-1.177l-0.978 6.349-22.126 6.292c-0.511 0.145-0.942 0.487-1.2 0.951s-0.321 1.01-0.177 1.521l2.752 9.673c0.25 0.879 1.052 1.453 1.923 1.453 0.181 0 0.365-0.025 0.548-0.077l54.581-15.525c0.511-0.145 0.942-0.487 1.2-0.951s0.321-1.011 0.176-1.521zm-41.549-10.97c-5.885 0.575-10.986-3.702-11.556-9.485-0.236-2.406 0.338-4.752 1.659-6.786 0.377-0.58 0.428-1.313 0.134-1.939s-0.89-1.056-1.577-1.137c-4.892-0.576-8.792-4.554-9.274-9.458-0.57-5.801 3.685-10.985 9.485-11.556 0.342-0.034 0.682-0.05 1.019-0.05 0.977 0 1.956 0.139 2.912 0.412 0.642 0.183 1.338 0.033 1.848-0.401 0.51-0.435 0.769-1.097 0.688-1.762-1e-3 -0.013-4e-3 -0.029-6e-3 -0.046-0.545-5.784 3.703-10.942 9.489-11.512 5.885-0.577 10.986 3.704 11.552 9.457 0.041 0.674 0.419 1.283 1.006 1.617 0.589 0.334 1.304 0.35 1.904 0.042 1.196-0.615 2.47-0.992 3.784-1.122 5.899-0.581 10.987 3.702 11.557 9.485 0.482 4.905-2.568 9.566-7.254 11.084-0.658 0.213-1.159 0.751-1.325 1.423s0.026 1.381 0.509 1.876c1.693 1.737 2.714 3.927 2.95 6.332 0.57 5.801-3.685 10.985-9.485 11.556-3.335 0.325-6.588-0.95-8.832-3.402-0.426-0.465-1.049-0.701-1.672-0.64-0.627 0.062-1.188 0.415-1.515 0.954-1.749 2.886-4.664 4.73-8 5.058zm-13.58 24.572-1.657-5.826 21.437-6.097c0.752-0.214 1.311-0.847 1.43-1.619l1.755-11.391c0.211-0.219 0.426-0.433 0.625-0.666 0.395 0.309 0.807 0.592 1.229 0.858l-0.909 8.178c-0.073 0.654 0.181 1.302 0.679 1.733 0.497 0.431 1.176 0.59 1.812 0.423l22.665-5.893 1.67 5.869z"/>
    </g>
  </g>
</svg>
